<svg width="40" height="40" viewBox="0 0 40 40" fill="none" xmlns="http://www.w3.org/2000/svg">
<path d="M0 20C0 8.95431 8.95431 0 20 0C31.0457 0 40 8.95431 40 20C40 31.0457 31.0457 40 20 40C8.95431 40 0 31.0457 0 20Z" fill="#FEF3F2"/>
<path d="M19.9998 16.4584C19.4245 16.4584 18.9582 16.9247 18.9582 17.5C18.9582 17.8452 18.6783 18.125 18.3332 18.125C17.988 18.125 17.7082 17.8452 17.7082 17.5C17.7082 16.2344 18.7342 15.2084 19.9998 15.2084C21.2655 15.2084 22.2915 16.2344 22.2915 17.5C22.2915 17.9553 22.1581 18.3813 21.928 18.7389C21.7839 18.9628 21.6154 19.1766 21.4601 19.3697L21.3763 19.4736C21.2474 19.6331 21.1291 19.7796 21.0197 19.9298C20.7501 20.3004 20.6248 20.5789 20.6248 20.8334V21.25C20.6248 21.5952 20.345 21.875 19.9998 21.875C19.6547 21.875 19.3748 21.5952 19.3748 21.25V20.8334C19.3748 20.1673 19.7018 19.6165 20.009 19.1944C20.1387 19.0161 20.2809 18.8402 20.4102 18.6802L20.4862 18.5861C20.6405 18.3943 20.7719 18.2256 20.8768 18.0625C20.981 17.9006 21.0415 17.7083 21.0415 17.5C21.0415 16.9247 20.5751 16.4584 19.9998 16.4584Z" fill="#B42318"/>
<path d="M19.9933 23.3334C19.5331 23.3334 19.16 23.7064 19.16 24.1667C19.16 24.6269 19.5331 25 19.9933 25H20.0008C20.4611 25 20.8341 24.6269 20.8341 24.1667C20.8341 23.7064 20.4611 23.3334 20.0008 23.3334H19.9933Z" fill="#B42318"/>
<path fill-rule="evenodd" clip-rule="evenodd" d="M11.0415 20C11.0415 15.0525 15.0523 11.0417 19.9998 11.0417C24.9474 11.0417 28.9582 15.0525 28.9582 20C28.9582 24.9476 24.9474 28.9584 19.9998 28.9584C15.0523 28.9584 11.0415 24.9476 11.0415 20ZM19.9998 12.2917C15.7426 12.2917 12.2915 15.7428 12.2915 20C12.2915 24.2572 15.7426 27.7084 19.9998 27.7084C24.257 27.7084 27.7082 24.2572 27.7082 20C27.7082 15.7428 24.257 12.2917 19.9998 12.2917Z" fill="#B42318"/>
</svg>
