<svg class="elementsIcon" width="20" height="22" viewBox="0 0 20 22" fill="none" xmlns="http://www.w3.org/2000/svg">
<path fill-rule="evenodd" clip-rule="evenodd" d="M10.9998 0.250854C14.1608 0.250854 15.903 0.250854 17.23 1.18585C17.611 1.45385 17.95 1.77385 18.24 2.13685C19.251 3.40785 19.251 5.03485 19.251 8.27385V10.8189C19.251 13.8738 19.251 15.4069 18.729 16.7229C17.895 18.8279 16.139 20.4849 13.911 21.2669C12.7097 21.6876 11.3248 21.7418 8.85332 21.7488C8.841 21.7499 8.82868 21.7509 8.81633 21.7518C8.80186 21.753 8.78781 21.7518 8.77406 21.749C8.43151 21.7499 8.0683 21.7499 7.68208 21.7499C5.80016 21.7499 4.85498 21.7499 4.01699 21.4559C2.65599 20.9779 1.582 19.9639 1.071 18.6749C0.75 17.8659 0.75 16.9689 0.75 15.1829V10.6703C0.75 10.2563 1.086 9.92028 1.5 9.92028C1.914 9.92028 2.25 10.2563 2.25 10.6703V15.1828C2.25 16.7787 2.25 17.5799 2.46499 18.1229C2.81599 19.0079 3.56301 19.7079 4.51301 20.0419C5.11001 20.2519 5.96899 20.2519 7.68096 20.2519C8.0634 20.2519 8.42207 20.2519 8.75907 20.2511C10.0619 20.1207 11.083 19.0176 11.083 17.681C11.083 17.5211 11.075 17.3488 11.0666 17.1666L11.0647 17.1261C11.0398 16.5815 11.0115 15.9649 11.165 15.389C11.388 14.557 12.043 13.902 12.875 13.679C13.4506 13.5256 14.0659 13.5537 14.6112 13.5787L14.6511 13.5805C14.8339 13.589 15.0067 13.597 15.167 13.597C16.5666 13.597 17.7102 12.4773 17.749 11.0869C17.749 10.9993 17.749 10.9104 17.749 10.82V8.27485C17.749 5.38385 17.749 3.93285 17.064 3.07185C16.864 2.82085 16.629 2.59885 16.364 2.41385C15.465 1.78085 13.9868 1.75286 10.9978 1.75286C10.5838 1.75286 10.2478 1.41686 10.2478 1.00286C10.2478 0.588855 10.5838 0.252855 10.9978 0.252855L10.9998 0.250854ZM17.6944 14.2184C16.9986 14.7683 16.1204 15.097 15.167 15.097C14.9762 15.097 14.7811 15.0883 14.5905 15.0799C14.5763 15.0792 14.5621 15.0786 14.548 15.078L14.5321 15.0772C14.0781 15.0565 13.6109 15.0351 13.263 15.129C12.948 15.213 12.699 15.462 12.615 15.777C12.5212 16.1291 12.5429 16.6017 12.5638 17.0587L12.564 17.062C12.574 17.266 12.583 17.476 12.583 17.681C12.583 18.617 12.2663 19.4805 11.7344 20.17C12.4126 20.1131 12.9462 20.0165 13.413 19.8529C15.23 19.2149 16.659 17.8729 17.333 16.1719C17.5375 15.6556 17.6415 15.0456 17.6944 14.2184Z" fill="#161616"/>
<path d="M3.58933 3.36016C3.39711 3.60489 3.19487 3.86201 3.03781 4.0236C2.74911 4.32062 2.27428 4.32737 1.97726 4.03867C1.68023 3.74996 1.67349 3.27514 1.96219 2.97811C2.05089 2.88685 2.19651 2.70504 2.40971 2.43362L2.45675 2.37369C2.64683 2.13155 2.8698 1.84749 3.09954 1.57636C3.34574 1.28581 3.62131 0.984013 3.89679 0.749391C4.03484 0.631816 4.19043 0.515847 4.35782 0.426268C4.51926 0.339874 4.74172 0.250854 5 0.250854C5.25829 0.250854 5.48074 0.339874 5.64218 0.426268C5.80957 0.515847 5.96517 0.631816 6.10321 0.749391C6.37869 0.984012 6.65426 1.28581 6.90047 1.57636C7.1302 1.84748 7.35317 2.13154 7.54324 2.37368L7.59029 2.43362C7.80349 2.70504 7.94911 2.88685 8.03781 2.97811C8.32651 3.27514 8.31977 3.74996 8.02274 4.03867C7.72572 4.32737 7.25089 4.32062 6.96219 4.0236C6.80513 3.86201 6.6029 3.60489 6.41067 3.36016L6.36595 3.30321C6.17304 3.05748 5.96675 2.79471 5.75606 2.54607L5.75 2.53893V9.00085C5.75 9.41507 5.41421 9.75085 5 9.75085C4.58579 9.75085 4.25 9.41507 4.25 9.00085V2.53893L4.24394 2.54607C4.03326 2.7947 3.82698 3.05746 3.63408 3.30318L3.58933 3.36016Z" fill="#161616"/>
</svg>
