<svg width="20" height="20" viewBox="0 0 20 20" fill="none" xmlns="http://www.w3.org/2000/svg">
<path fill-rule="evenodd" clip-rule="evenodd" d="M10.0002 19.1666C15.0628 19.1666 19.1668 15.0626 19.1668 9.99998C19.1668 4.93737 15.0628 0.833313 10.0002 0.833313C4.93755 0.833313 0.833496 4.93737 0.833496 9.99998C0.833496 15.0626 4.93755 19.1666 10.0002 19.1666Z" fill="white"/>
<path fill-rule="evenodd" clip-rule="evenodd" d="M10.0002 19.1666C15.0628 19.1666 19.1668 15.0626 19.1668 9.99998C19.1668 4.93737 15.0628 0.833313 10.0002 0.833313C4.93755 0.833313 0.833496 4.93737 0.833496 9.99998C0.833496 15.0626 4.93755 19.1666 10.0002 19.1666ZM10.0002 5.83331C9.53992 5.83331 9.16683 6.20641 9.16683 6.66665V9.99998C9.16683 10.4602 9.53992 10.8333 10.0002 10.8333C10.4604 10.8333 10.8335 10.4602 10.8335 9.99998V6.66665C10.8335 6.20641 10.4604 5.83331 10.0002 5.83331ZM10.0002 12.5C9.53992 12.5 9.16683 12.8731 9.16683 13.3333C9.16683 13.7935 9.53992 14.1666 10.0002 14.1666C10.4604 14.1666 10.8335 13.7935 10.8335 13.3333C10.8335 12.8731 10.4604 12.5 10.0002 12.5Z" fill="#B42318"/>
</svg>
