<svg width="24" height="24" viewBox="0 0 24 24" fill="none" xmlns="http://www.w3.org/2000/svg">
<path fill-rule="evenodd" clip-rule="evenodd" d="M12.8575 2.95731C12.4691 2.30997 11.5309 2.30997 11.1425 2.95731L0.9087 20.0137C0.508785 20.6802 0.988898 21.5282 1.76619 21.5282H22.2338C23.0111 21.5282 23.4912 20.6802 23.0913 20.0137L12.8575 2.95731Z" fill="white"/>
<path fill-rule="evenodd" clip-rule="evenodd" d="M12.8575 2.95731C12.4691 2.30997 11.5309 2.30997 11.1425 2.95731L0.9087 20.0137C0.508785 20.6802 0.988898 21.5282 1.76619 21.5282H22.2338C23.0111 21.5282 23.4912 20.6802 23.0913 20.0137L12.8575 2.95731ZM12 8.52815C11.4477 8.52815 11 8.97587 11 9.52815V13.5282C11 14.0804 11.4477 14.5282 12 14.5282C12.5523 14.5282 13 14.0804 13 13.5282V9.52815C13 8.97587 12.5523 8.52815 12 8.52815ZM12 16.5282C11.4477 16.5282 11 16.9759 11 17.5282C11 18.0804 11.4477 18.5282 12 18.5282C12.5523 18.5282 13 18.0804 13 17.5282C13 16.9759 12.5523 16.5282 12 16.5282Z" fill="#B54708"/>
</svg>
