<svg width="16" height="16" viewBox="0 0 16 16" fill="none" xmlns="http://www.w3.org/2000/svg">
<path d="M7.33337 11.3334C7.33337 10.9652 7.63185 10.6667 8.00004 10.6667H8.00603C8.37422 10.6667 8.6727 10.9652 8.6727 11.3334C8.6727 11.7016 8.37422 12.0001 8.00603 12.0001H8.00004C7.63185 12.0001 7.33337 11.7016 7.33337 11.3334Z" fill="#161616"/>
<path fill-rule="evenodd" clip-rule="evenodd" d="M2.16671 6.89374L1.67943 7.36098C1.48011 7.5521 1.1636 7.54545 0.972478 7.34614C0.781357 7.14682 0.788003 6.8303 0.987321 6.63918L3.90947 3.83722C4.77569 3.00662 5.46219 2.34834 6.07165 1.90246C6.6997 1.44298 7.30081 1.16675 8.00004 1.16675C8.69927 1.16675 9.30039 1.44298 9.92843 1.90246C10.5379 2.34834 11.2244 3.00662 12.0906 3.83722L15.0128 6.63918C15.2121 6.8303 15.2187 7.14682 15.0276 7.34614C14.8365 7.54545 14.52 7.5521 14.3207 7.36098L13.8334 6.89374V9.03769C13.8334 10.2628 13.8334 11.2333 13.7313 11.9928C13.6262 12.7744 13.4048 13.407 12.9059 13.9059C12.407 14.4048 11.7743 14.6262 10.9927 14.7313C10.2333 14.8334 9.26284 14.8334 8.03768 14.8334H7.96243C6.73727 14.8334 5.76683 14.8334 5.00736 14.7313C4.22574 14.6262 3.59311 14.4048 3.0942 13.9059C2.59529 13.407 2.37388 12.7744 2.2688 11.9928C2.16669 11.2333 2.1667 10.2629 2.16671 9.03769L2.16671 6.89374ZM4.57486 4.58463C5.4738 3.72267 6.11279 3.11141 6.6621 2.70953C7.19909 2.31668 7.5947 2.16675 8.00004 2.16675C8.40538 2.16675 8.801 2.31668 9.33798 2.70953C9.8873 3.11141 10.5263 3.72267 11.4252 4.58463L12.8334 5.93487V9.00008C12.8334 10.2713 12.8323 11.1744 12.7402 11.8595C12.65 12.5302 12.4809 12.9167 12.1988 13.1988C11.9166 13.481 11.5302 13.6501 10.8595 13.7402C10.1744 13.8324 9.27126 13.8334 8.00004 13.8334C6.72883 13.8334 5.82572 13.8324 5.14061 13.7402C4.46988 13.6501 4.08345 13.481 3.80131 13.1988C3.51917 12.9167 3.35006 12.5302 3.25988 11.8595C3.16777 11.1744 3.16671 10.2713 3.16671 9.00008V5.93487L4.57486 4.58463Z" fill="#161616"/>
</svg>
