<svg width="16" height="16" viewBox="0 0 16 16" fill="none" xmlns="http://www.w3.org/2000/svg">
<path d="M11.0352 6.33786C11.2218 6.1343 11.2081 5.81802 11.0045 5.63142C10.801 5.44482 10.4847 5.45858 10.2981 5.66214L6.98429 9.27719L5.68688 7.97978C5.49162 7.78452 5.17504 7.78452 4.97977 7.97978C4.78451 8.17504 4.78451 8.49162 4.97977 8.68688L6.64644 10.3536C6.74287 10.45 6.87451 10.5028 7.01086 10.4999C7.1472 10.4969 7.27642 10.4384 7.36857 10.3379L11.0352 6.33786Z" fill="#1B8354"/>
<path fill-rule="evenodd" clip-rule="evenodd" d="M8 15.1667C4.04195 15.1667 0.833328 11.958 0.833328 8C0.833328 4.04195 4.04195 0.833328 8 0.833328C11.958 0.833328 15.1667 4.04195 15.1667 8C15.1667 11.958 11.958 15.1667 8 15.1667ZM1.83333 8C1.83333 11.4058 4.59424 14.1667 8 14.1667C11.4058 14.1667 14.1667 11.4058 14.1667 8C14.1667 4.59424 11.4058 1.83333 8 1.83333C4.59424 1.83333 1.83333 4.59424 1.83333 8Z" fill="#1B8354"/>
</svg>
